# Blender 4.1.1
# www.blender.org
mtllib suzanne.mtl
o Suzanne
v 0.437500 0.164062 0.765625
v -0.437500 0.164062 0.765625
v 0.500000 0.093750 0.687500
v -0.500000 0.093750 0.687500
v 0.546875 0.054688 0.578125
v -0.546875 0.054688 0.578125
v 0.351562 -0.023438 0.617188
v -0.351562 -0.023438 0.617188
v 0.351562 0.031250 0.718750
v -0.351562 0.031250 0.718750
v 0.351562 0.132812 0.781250
v -0.351562 0.132812 0.781250
v 0.273438 0.164062 0.796875
v -0.273438 0.164062 0.796875
v 0.203125 0.093750 0.742188
v -0.203125 0.093750 0.742188
v 0.156250 0.054688 0.648438
v -0.156250 0.054688 0.648438
v 0.078125 0.242188 0.656250
v -0.078125 0.242188 0.656250
v 0.140625 0.242188 0.742188
v -0.140625 0.242188 0.742188
v 0.242188 0.242188 0.796875
v -0.242188 0.242188 0.796875
v 0.273438 0.328125 0.796875
v -0.273438 0.328125 0.796875
v 0.203125 0.390625 0.742188
v -0.203125 0.390625 0.742188
v 0.156250 0.437500 0.648438
v -0.156250 0.437500 0.648438
v 0.351562 0.515625 0.617188
v -0.351562 0.515625 0.617188
v 0.351562 0.453125 0.718750
v -0.351562 0.453125 0.718750
v 0.351562 0.359375 0.781250
v -0.351562 0.359375 0.781250
v 0.437500 0.328125 0.765625
v -0.437500 0.328125 0.765625
v 0.500000 0.390625 0.687500
v -0.500000 0.390625 0.687500
v 0.546875 0.437500 0.578125
v -0.546875 0.437500 0.578125
v 0.625000 0.242188 0.562500
v -0.625000 0.242188 0.562500
v 0.562500 0.242188 0.671875
v -0.562500 0.242188 0.671875
v 0.468750 0.242188 0.757812
v -0.468750 0.242188 0.757812
v 0.476562 0.242188 0.773438
v -0.476562 0.242188 0.773438
v 0.445312 0.335938 0.781250
v -0.445312 0.335938 0.781250
v 0.351562 0.375000 0.804688
v -0.351562 0.375000 0.804688
v 0.265625 0.335938 0.820312
v -0.265625 0.335938 0.820312
v 0.226562 0.242188 0.820312
v -0.226562 0.242188 0.820312
v 0.265625 0.156250 0.820312
v -0.265625 0.156250 0.820312
v 0.351562 0.242188 0.828125
v -0.351562 0.242188 0.828125
v 0.351562 0.117188 0.804688
v -0.351562 0.117188 0.804688
v 0.445312 0.156250 0.781250
v -0.445312 0.156250 0.781250
v 0.000000 0.429688 0.742188
v 0.000000 0.351562 0.820312
v 0.000000 -0.679688 0.734375
v 0.000000 -0.320312 0.781250
v 0.000000 -0.187500 0.796875
v 0.000000 -0.773438 0.718750
v 0.000000 0.406250 0.601562
v 0.000000 0.570312 0.570312
v 0.000000 0.898438 -0.546875
v 0.000000 0.562500 -0.851562
v 0.000000 0.070312 -0.828125
v 0.000000 -0.382812 -0.351562
v 0.203125 -0.187500 0.562500
v -0.203125 -0.187500 0.562500
v 0.312500 -0.437500 0.570312
v -0.312500 -0.437500 0.570312
v 0.351562 -0.695312 0.570312
v -0.351562 -0.695312 0.570312
v 0.367188 -0.890625 0.531250
v -0.367188 -0.890625 0.531250
v 0.328125 -0.945312 0.523438
v -0.328125 -0.945312 0.523438
v 0.179688 -0.968750 0.554688
v -0.179688 -0.968750 0.554688
v 0.000000 -0.984375 0.578125
v 0.437500 -0.140625 0.531250
v -0.437500 -0.140625 0.531250
v 0.632812 -0.039062 0.539062
v -0.632812 -0.039062 0.539062
v 0.828125 0.148438 0.445312
v -0.828125 0.148438 0.445312
v 0.859375 0.429688 0.593750
v -0.859375 0.429688 0.593750
v 0.710938 0.484375 0.625000
v -0.710938 0.484375 0.625000
v 0.492188 0.601562 0.687500
v -0.492188 0.601562 0.687500
v 0.320312 0.757812 0.734375
v -0.320312 0.757812 0.734375
v 0.156250 0.718750 0.757812
v -0.156250 0.718750 0.757812
v 0.062500 0.492188 0.750000
v -0.062500 0.492188 0.750000
v 0.164062 0.414062 0.773438
v -0.164062 0.414062 0.773438
v 0.125000 0.304688 0.765625
v -0.125000 0.304688 0.765625
v 0.203125 0.093750 0.742188
v -0.203125 0.093750 0.742188
v 0.375000 0.015625 0.703125
v -0.375000 0.015625 0.703125
v 0.492188 0.062500 0.671875
v -0.492188 0.062500 0.671875
v 0.625000 0.187500 0.648438
v -0.625000 0.187500 0.648438
v 0.640625 0.296875 0.648438
v -0.640625 0.296875 0.648438
v 0.601562 0.375000 0.664062
v -0.601562 0.375000 0.664062
v 0.429688 0.437500 0.718750
v -0.429688 0.437500 0.718750
v 0.250000 0.468750 0.757812
v -0.250000 0.468750 0.757812
v 0.000000 -0.765625 0.734375
v 0.109375 -0.718750 0.734375
v -0.109375 -0.718750 0.734375
v 0.117188 -0.835938 0.710938
v -0.117188 -0.835938 0.710938
v 0.062500 -0.882812 0.695312
v -0.062500 -0.882812 0.695312
v 0.000000 -0.890625 0.687500
v 0.000000 -0.195312 0.750000
v 0.000000 -0.140625 0.742188
v 0.101562 -0.148438 0.742188
v -0.101562 -0.148438 0.742188
v 0.125000 -0.226562 0.750000
v -0.125000 -0.226562 0.750000
v 0.085938 -0.289062 0.742188
v -0.085938 -0.289062 0.742188
v 0.398438 -0.046875 0.671875
v -0.398438 -0.046875 0.671875
v 0.617188 0.054688 0.625000
v -0.617188 0.054688 0.625000
v 0.726562 0.203125 0.601562
v -0.726562 0.203125 0.601562
v 0.742188 0.375000 0.656250
v -0.742188 0.375000 0.656250
v 0.687500 0.414062 0.726562
v -0.687500 0.414062 0.726562
v 0.437500 0.546875 0.796875
v -0.437500 0.546875 0.796875
v 0.312500 0.640625 0.835938
v -0.312500 0.640625 0.835938
v 0.203125 0.617188 0.851562
v -0.203125 0.617188 0.851562
v 0.101562 0.429688 0.843750
v -0.101562 0.429688 0.843750
v 0.125000 -0.101562 0.812500
v -0.125000 -0.101562 0.812500
v 0.210938 -0.445312 0.710938
v -0.210938 -0.445312 0.710938
v 0.250000 -0.703125 0.687500
v -0.250000 -0.703125 0.687500
v 0.265625 -0.820312 0.664062
v -0.265625 -0.820312 0.664062
v 0.234375 -0.914062 0.632812
v -0.234375 -0.914062 0.632812
v 0.164062 -0.929688 0.632812
v -0.164062 -0.929688 0.632812
v 0.000000 -0.945312 0.640625
v 0.000000 0.046875 0.726562
v 0.000000 0.210938 0.765625
v 0.328125 0.476562 0.742188
v -0.328125 0.476562 0.742188
v 0.164062 0.140625 0.750000
v -0.164062 0.140625 0.750000
v 0.132812 0.210938 0.757812
v -0.132812 0.210938 0.757812
v 0.117188 -0.687500 0.734375
v -0.117188 -0.687500 0.734375
v 0.078125 -0.445312 0.750000
v -0.078125 -0.445312 0.750000
v 0.000000 -0.445312 0.750000
v 0.000000 -0.328125 0.742188
v 0.093750 -0.273438 0.781250
v -0.093750 -0.273438 0.781250
v 0.132812 -0.226562 0.796875
v -0.132812 -0.226562 0.796875
v 0.109375 -0.132812 0.781250
v -0.109375 -0.132812 0.781250
v 0.039062 -0.125000 0.781250
v -0.039062 -0.125000 0.781250
v 0.000000 -0.203125 0.828125
v 0.046875 -0.148438 0.812500
v -0.046875 -0.148438 0.812500
v 0.093750 -0.156250 0.812500
v -0.093750 -0.156250 0.812500
v 0.109375 -0.226562 0.828125
v -0.109375 -0.226562 0.828125
v 0.078125 -0.250000 0.804688
v -0.078125 -0.250000 0.804688
v 0.000000 -0.289062 0.804688
v 0.257812 -0.312500 0.554688
v -0.257812 -0.312500 0.554688
v 0.164062 -0.242188 0.710938
v -0.164062 -0.242188 0.710938
v 0.179688 -0.312500 0.710938
v -0.179688 -0.312500 0.710938
v 0.234375 -0.250000 0.554688
v -0.234375 -0.250000 0.554688
v 0.000000 -0.875000 0.687500
v 0.046875 -0.867188 0.687500
v -0.046875 -0.867188 0.687500
v 0.093750 -0.820312 0.710938
v -0.093750 -0.820312 0.710938
v 0.093750 -0.742188 0.726562
v -0.093750 -0.742188 0.726562
v 0.000000 -0.781250 0.656250
v 0.093750 -0.750000 0.664062
v -0.093750 -0.750000 0.664062
v 0.093750 -0.812500 0.640625
v -0.093750 -0.812500 0.640625
v 0.046875 -0.851562 0.632812
v -0.046875 -0.851562 0.632812
v 0.000000 -0.859375 0.632812
v 0.171875 0.218750 0.781250
v -0.171875 0.218750 0.781250
v 0.187500 0.156250 0.773438
v -0.187500 0.156250 0.773438
v 0.335938 0.429688 0.757812
v -0.335938 0.429688 0.757812
v 0.273438 0.421875 0.773438
v -0.273438 0.421875 0.773438
v 0.421875 0.398438 0.773438
v -0.421875 0.398438 0.773438
v 0.562500 0.351562 0.695312
v -0.562500 0.351562 0.695312
v 0.585938 0.289062 0.687500
v -0.585938 0.289062 0.687500
v 0.578125 0.195312 0.679688
v -0.578125 0.195312 0.679688
v 0.476562 0.101562 0.718750
v -0.476562 0.101562 0.718750
v 0.375000 0.062500 0.742188
v -0.375000 0.062500 0.742188
v 0.226562 0.109375 0.781250
v -0.226562 0.109375 0.781250
v 0.179688 0.296875 0.781250
v -0.179688 0.296875 0.781250
v 0.210938 0.375000 0.781250
v -0.210938 0.375000 0.781250
v 0.234375 0.359375 0.757812
v -0.234375 0.359375 0.757812
v 0.195312 0.296875 0.757812
v -0.195312 0.296875 0.757812
v 0.242188 0.125000 0.757812
v -0.242188 0.125000 0.757812
v 0.375000 0.085938 0.726562
v -0.375000 0.085938 0.726562
v 0.460938 0.117188 0.703125
v -0.460938 0.117188 0.703125
v 0.546875 0.210938 0.671875
v -0.546875 0.210938 0.671875
v 0.554688 0.281250 0.671875
v -0.554688 0.281250 0.671875
v 0.531250 0.335938 0.679688
v -0.531250 0.335938 0.679688
v 0.414062 0.390625 0.750000
v -0.414062 0.390625 0.750000
v 0.281250 0.398438 0.765625
v -0.281250 0.398438 0.765625
v 0.335938 0.406250 0.750000
v -0.335938 0.406250 0.750000
v 0.203125 0.171875 0.750000
v -0.203125 0.171875 0.750000
v 0.195312 0.226562 0.750000
v -0.195312 0.226562 0.750000
v 0.109375 0.460938 0.609375
v -0.109375 0.460938 0.609375
v 0.195312 0.664062 0.617188
v -0.195312 0.664062 0.617188
v 0.335938 0.687500 0.593750
v -0.335938 0.687500 0.593750
v 0.484375 0.554688 0.554688
v -0.484375 0.554688 0.554688
v 0.679688 0.453125 0.492188
v -0.679688 0.453125 0.492188
v 0.796875 0.406250 0.460938
v -0.796875 0.406250 0.460938
v 0.773438 0.164062 0.375000
v -0.773438 0.164062 0.375000
v 0.601562 0.000000 0.414062
v -0.601562 0.000000 0.414062
v 0.437500 -0.093750 0.468750
v -0.437500 -0.093750 0.468750
v 0.000000 0.898438 0.289062
v 0.000000 0.984375 -0.078125
v 0.000000 -0.195312 -0.671875
v 0.000000 -0.460938 0.187500
v 0.000000 -0.976562 0.460938
v 0.000000 -0.804688 0.343750
v 0.000000 -0.570312 0.320312
v 0.000000 -0.484375 0.281250
v 0.851562 0.234375 0.054688
v -0.851562 0.234375 0.054688
v 0.859375 0.320312 -0.046875
v -0.859375 0.320312 -0.046875
v 0.773438 0.265625 -0.437500
v -0.773438 0.265625 -0.437500
v 0.460938 0.437500 -0.703125
v -0.460938 0.437500 -0.703125
v 0.734375 -0.046875 0.070312
v -0.734375 -0.046875 0.070312
v 0.593750 -0.125000 -0.164062
v -0.593750 -0.125000 -0.164062
v 0.640625 -0.007812 -0.429688
v -0.640625 -0.007812 -0.429688
v 0.335938 0.054688 -0.664062
v -0.335938 0.054688 -0.664062
v 0.234375 -0.351562 0.406250
v -0.234375 -0.351562 0.406250
v 0.179688 -0.414062 0.257812
v -0.179688 -0.414062 0.257812
v 0.289062 -0.710938 0.382812
v -0.289062 -0.710938 0.382812
v 0.250000 -0.500000 0.390625
v -0.250000 -0.500000 0.390625
v 0.328125 -0.914062 0.398438
v -0.328125 -0.914062 0.398438
v 0.140625 -0.757812 0.367188
v -0.140625 -0.757812 0.367188
v 0.125000 -0.539062 0.359375
v -0.125000 -0.539062 0.359375
v 0.164062 -0.945312 0.437500
v -0.164062 -0.945312 0.437500
v 0.218750 -0.281250 0.429688
v -0.218750 -0.281250 0.429688
v 0.210938 -0.226562 0.468750
v -0.210938 -0.226562 0.468750
v 0.203125 -0.171875 0.500000
v -0.203125 -0.171875 0.500000
v 0.210938 -0.390625 0.164062
v -0.210938 -0.390625 0.164062
v 0.296875 -0.312500 -0.265625
v -0.296875 -0.312500 -0.265625
v 0.343750 -0.148438 -0.539062
v -0.343750 -0.148438 -0.539062
v 0.453125 0.867188 -0.382812
v -0.453125 0.867188 -0.382812
v 0.453125 0.929688 -0.070312
v -0.453125 0.929688 -0.070312
v 0.453125 0.851562 0.234375
v -0.453125 0.851562 0.234375
v 0.460938 0.523438 0.429688
v -0.460938 0.523438 0.429688
v 0.726562 0.406250 0.335938
v -0.726562 0.406250 0.335938
v 0.632812 0.453125 0.281250
v -0.632812 0.453125 0.281250
v 0.640625 0.703125 0.054688
v -0.640625 0.703125 0.054688
v 0.796875 0.562500 0.125000
v -0.796875 0.562500 0.125000
v 0.796875 0.617188 -0.117188
v -0.796875 0.617188 -0.117188
v 0.640625 0.750000 -0.195312
v -0.640625 0.750000 -0.195312
v 0.640625 0.679688 -0.445312
v -0.640625 0.679688 -0.445312
v 0.796875 0.539062 -0.359375
v -0.796875 0.539062 -0.359375
v 0.617188 0.328125 -0.585938
v -0.617188 0.328125 -0.585938
v 0.484375 0.023438 -0.546875
v -0.484375 0.023438 -0.546875
v 0.820312 0.328125 -0.203125
v -0.820312 0.328125 -0.203125
v 0.406250 -0.171875 0.148438
v -0.406250 -0.171875 0.148438
v 0.429688 -0.195312 -0.210938
v -0.429688 -0.195312 -0.210938
v 0.890625 0.406250 -0.234375
v -0.890625 0.406250 -0.234375
v 0.773438 -0.140625 -0.125000
v -0.773438 -0.140625 -0.125000
v 1.039062 -0.101562 -0.328125
v -1.039062 -0.101562 -0.328125
v 1.281250 0.054688 -0.429688
v -1.281250 0.054688 -0.429688
v 1.351562 0.320312 -0.421875
v -1.351562 0.320312 -0.421875
v 1.234375 0.507812 -0.421875
v -1.234375 0.507812 -0.421875
v 1.023438 0.476562 -0.312500
v -1.023438 0.476562 -0.312500
v 1.015625 0.414062 -0.289062
v -1.015625 0.414062 -0.289062
v 1.187500 0.437500 -0.390625
v -1.187500 0.437500 -0.390625
v 1.265625 0.289062 -0.406250
v -1.265625 0.289062 -0.406250
v 1.210938 0.078125 -0.406250
v -1.210938 0.078125 -0.406250
v 1.031250 -0.039062 -0.304688
v -1.031250 -0.039062 -0.304688
v 0.828125 -0.070312 -0.132812
v -0.828125 -0.070312 -0.132812
v 0.921875 0.359375 -0.218750
v -0.921875 0.359375 -0.218750
v 0.945312 0.304688 -0.289062
v -0.945312 0.304688 -0.289062
v 0.882812 -0.023438 -0.210938
v -0.882812 -0.023438 -0.210938
v 1.039062 0.000000 -0.367188
v -1.039062 0.000000 -0.367188
v 1.187500 0.093750 -0.445312
v -1.187500 0.093750 -0.445312
v 1.234375 0.250000 -0.445312
v -1.234375 0.250000 -0.445312
v 1.171875 0.359375 -0.437500
v -1.171875 0.359375 -0.437500
v 1.023438 0.343750 -0.359375
v -1.023438 0.343750 -0.359375
v 0.843750 0.289062 -0.210938
v -0.843750 0.289062 -0.210938
v 0.835938 0.171875 -0.273438
v -0.835938 0.171875 -0.273438
v 0.757812 0.093750 -0.273438
v -0.757812 0.093750 -0.273438
v 0.820312 0.085938 -0.273438
v -0.820312 0.085938 -0.273438
v 0.843750 0.015625 -0.273438
v -0.843750 0.015625 -0.273438
v 0.812500 -0.015625 -0.273438
v -0.812500 -0.015625 -0.273438
v 0.726562 0.000000 -0.070312
v -0.726562 0.000000 -0.070312
v 0.718750 -0.023438 -0.171875
v -0.718750 -0.023438 -0.171875
v 0.718750 0.039062 -0.187500
v -0.718750 0.039062 -0.187500
v 0.796875 0.203125 -0.210938
v -0.796875 0.203125 -0.210938
v 0.890625 0.242188 -0.265625
v -0.890625 0.242188 -0.265625
v 0.890625 0.234375 -0.320312
v -0.890625 0.234375 -0.320312
v 0.812500 -0.015625 -0.320312
v -0.812500 -0.015625 -0.320312
v 0.851562 0.015625 -0.320312
v -0.851562 0.015625 -0.320312
v 0.828125 0.078125 -0.320312
v -0.828125 0.078125 -0.320312
v 0.765625 0.093750 -0.320312
v -0.765625 0.093750 -0.320312
v 0.843750 0.171875 -0.320312
v -0.843750 0.171875 -0.320312
v 1.039062 0.328125 -0.414062
v -1.039062 0.328125 -0.414062
v 1.187500 0.343750 -0.484375
v -1.187500 0.343750 -0.484375
v 1.257812 0.242188 -0.492188
v -1.257812 0.242188 -0.492188
v 1.210938 0.085938 -0.484375
v -1.210938 0.085938 -0.484375
v 1.046875 0.000000 -0.421875
v -1.046875 0.000000 -0.421875
v 0.882812 -0.015625 -0.265625
v -0.882812 -0.015625 -0.265625
v 0.953125 0.289062 -0.343750
v -0.953125 0.289062 -0.343750
v 0.890625 0.109375 -0.328125
v -0.890625 0.109375 -0.328125
v 0.937500 0.062500 -0.335938
v -0.937500 0.062500 -0.335938
v 1.000000 0.125000 -0.367188
v -1.000000 0.125000 -0.367188
v 0.960938 0.171875 -0.351562
v -0.960938 0.171875 -0.351562
v 1.015625 0.234375 -0.375000
v -1.015625 0.234375 -0.375000
v 1.054688 0.187500 -0.382812
v -1.054688 0.187500 -0.382812
v 1.109375 0.210938 -0.390625
v -1.109375 0.210938 -0.390625
v 1.085938 0.273438 -0.390625
v -1.085938 0.273438 -0.390625
v 1.023438 0.437500 -0.484375
v -1.023438 0.437500 -0.484375
v 1.250000 0.468750 -0.546875
v -1.250000 0.468750 -0.546875
v 1.367188 0.296875 -0.500000
v -1.367188 0.296875 -0.500000
v 1.312500 0.054688 -0.531250
v -1.312500 0.054688 -0.531250
v 1.039062 -0.085938 -0.492188
v -1.039062 -0.085938 -0.492188
v 0.789062 -0.125000 -0.328125
v -0.789062 -0.125000 -0.328125
v 0.859375 0.382812 -0.382812
v -0.859375 0.382812 -0.382812
vn 0.6818 -0.0034 0.7316
vn 0.5207 -0.3682 0.7703
vn 0.6040 -0.5102 0.6122
vn 0.8021 -0.0034 0.5972
vn -0.6040 -0.5102 0.6122
vn -0.5207 -0.3682 0.7703
vn -0.6818 -0.0034 0.7316
vn -0.8021 -0.0034 0.5972
vn 0.8294 -0.3036 0.4689
vn -0.8294 -0.3036 0.4689
vn 0.0982 -0.7510 0.6530
vn 0.4155 -0.7933 0.4449
vn -0.4155 -0.7933 0.4449
vn -0.0982 -0.7510 0.6530
vn 0.1311 -0.5384 0.8324
vn -0.1311 -0.5384 0.8324
vn -0.0787 -0.5394 0.8384
vn -0.1928 -0.7341 0.6511
vn 0.1928 -0.7341 0.6511
vn 0.0787 -0.5394 0.8384
vn -0.2696 -0.8413 0.4685
vn 0.2696 -0.8413 0.4685
vn -0.6625 -0.2839 0.6932
vn -0.6940 -0.0035 0.7200
vn -0.7707 -0.3352 0.5420
vn 0.7707 -0.3352 0.5420
vn 0.6940 -0.0035 0.7200
vn 0.6625 -0.2839 0.6932
vn -0.4689 -0.1940 0.8617
vn -0.4818 -0.0031 0.8763
vn 0.4818 -0.0031 0.8763
vn 0.4689 -0.1940 0.8617
vn -0.4767 0.1907 0.8581
vn -0.6617 0.2763 0.6970
vn 0.6617 0.2763 0.6970
vn 0.4767 0.1907 0.8581
vn -0.7672 0.3264 0.5521
vn 0.7672 0.3264 0.5521
vn -0.1882 0.7260 0.6614
vn 0.1019 0.7402 0.6647
vn -0.2519 0.8173 0.5182
vn 0.2519 0.8173 0.5182
vn -0.1019 0.7402 0.6647
vn 0.1882 0.7260 0.6614
vn -0.0949 0.5696 0.8164
vn 0.1252 0.5699 0.8121
vn -0.1252 0.5699 0.8121
vn 0.0949 0.5696 0.8164
vn 0.5261 0.3851 0.7583
vn 0.6085 0.4949 0.6203
vn -0.6085 0.4949 0.6203
vn -0.5261 0.3851 0.7583
vn 0.4141 0.7672 0.4898
vn -0.4141 0.7672 0.4898
vn 0.8277 0.2952 0.4771
vn -0.8277 0.2952 0.4771
vn 0.8111 0.3244 -0.4867
vn -0.8111 0.3244 -0.4867
vn 0.2052 0.8206 -0.5334
vn -0.2052 0.8206 -0.5334
vn -0.4223 0.7806 -0.4607
vn 0.4223 0.7806 -0.4607
vn -0.8241 0.3225 -0.4658
vn 0.8241 0.3225 -0.4658
vn -0.8137 -0.3487 -0.4650
vn 0.8137 -0.3487 -0.4650
vn -0.4223 -0.7806 -0.4607
vn 0.4223 -0.7806 -0.4607
vn 0.2052 -0.8206 -0.5334
vn -0.2052 -0.8206 -0.5334
vn 0.7995 -0.3510 -0.4875
vn -0.7995 -0.3510 -0.4875
vn 0.1836 -0.0053 0.9830
vn 0.3574 -0.1156 0.9268
vn 0.4008 -0.0019 0.9162
vn -0.4008 -0.0019 0.9162
vn -0.3574 -0.1156 0.9268
vn -0.1836 -0.0053 0.9830
vn 0.2070 -0.1803 0.9616
vn -0.2070 -0.1803 0.9616
vn 0.0167 -0.1071 0.9941
vn -0.0167 -0.1071 0.9941
vn -0.0624 -0.0008 0.9981
vn 0.0624 -0.0008 0.9981
vn 0.0232 0.1041 0.9943
vn -0.0232 0.1041 0.9943
vn 0.2074 0.1700 0.9634
vn -0.2074 0.1700 0.9634
vn 0.3535 0.1109 0.9288
vn -0.3535 0.1109 0.9288
vn 0.1794 -0.8646 0.4694
vn 0.1679 -0.7535 0.6357
vn -0.0000 -0.7922 0.6103
vn -0.0000 -0.8682 0.4961
vn -0.1679 -0.7535 0.6357
vn -0.1794 -0.8646 0.4694
vn 0.2190 -0.8647 0.4520
vn 0.3630 -0.6184 0.6970
vn -0.3630 -0.6184 0.6970
vn -0.2190 -0.8647 0.4520
vn 0.6720 -0.3123 0.6714
vn 0.5559 -0.2160 0.8027
vn 0.5902 -0.4550 0.6668
vn -0.5559 -0.2160 0.8027
vn -0.6720 -0.3123 0.6714
vn -0.5902 -0.4550 0.6668
vn 0.7759 0.0154 0.6307
vn 0.7767 0.0266 0.6293
vn -0.7767 0.0266 0.6293
vn -0.7759 0.0154 0.6307
vn 0.8012 0.1920 0.5667
vn 0.8031 0.2040 0.5599
vn -0.8031 0.2040 0.5599
vn -0.8012 0.1920 0.5667
vn 0.3241 -0.8188 0.4739
vn 0.3590 -0.7421 0.5660
vn 0.3809 -0.5176 0.7662
vn -0.3809 -0.5176 0.7662
vn -0.3590 -0.7421 0.5660
vn -0.3241 -0.8188 0.4739
vn 0.5273 -0.5683 0.6317
vn 0.4988 -0.4012 0.7683
vn -0.4988 -0.4012 0.7683
vn -0.5273 -0.5683 0.6317
vn 0.6760 -0.3939 0.6228
vn 0.5489 -0.3266 0.7694
vn -0.5489 -0.3266 0.7694
vn -0.6760 -0.3939 0.6228
vn 0.6588 -0.3634 0.6588
vn 0.3926 -0.4252 0.8155
vn -0.3926 -0.4252 0.8155
vn -0.6588 -0.3634 0.6588
vn 0.5465 0.3707 0.7509
vn 0.5354 0.5051 0.6769
vn 0.5293 0.5449 0.6504
vn -0.5293 0.5449 0.6504
vn -0.5354 0.5051 0.6769
vn -0.5465 0.3707 0.7509
vn 0.5511 0.5945 0.5855
vn 0.5707 0.5697 0.5914
vn -0.5707 0.5697 0.5914
vn -0.5511 0.5945 0.5855
vn 0.6092 0.5167 0.6015
vn -0.6092 0.5167 0.6015
vn -0.0441 0.6610 0.7491
vn 0.0441 0.6610 0.7491
vn -0.7246 0.3187 0.6110
vn -0.6708 0.4268 0.6065
vn -0.6577 0.4497 0.6044
vn 0.6577 0.4497 0.6044
vn 0.6708 0.4268 0.6065
vn 0.7246 0.3187 0.6110
vn -0.5880 0.5554 0.5880
vn 0.5880 0.5554 0.5880
vn 0.4792 -0.4093 0.7764
vn 0.3779 -0.4379 0.8158
vn 0.3488 -0.4447 0.8250
vn 0.4584 -0.4154 0.7857
vn -0.3488 -0.4447 0.8250
vn -0.3779 -0.4379 0.8158
vn -0.4792 -0.4093 0.7764
vn -0.4584 -0.4154 0.7857
vn 0.0460 -0.5117 0.8579
vn 0.1183 -0.4961 0.8602
vn -0.1183 -0.4961 0.8602
vn -0.0460 -0.5117 0.8579
vn -0.0815 -0.6114 0.7871
vn -0.0806 -0.5756 0.8137
vn 0.0806 -0.5756 0.8137
vn 0.0815 -0.6114 0.7871
vn -0.0248 -0.6189 0.7851
vn -0.0122 -0.6100 0.7923
vn 0.0122 -0.6100 0.7923
vn 0.0248 -0.6189 0.7851
vn 0.3630 -0.2123 0.9073
vn -0.3630 -0.2123 0.9073
vn 0.4415 -0.2059 0.8733
vn -0.4415 -0.2059 0.8733
vn 0.4194 -0.3797 0.8245
vn -0.4194 -0.3797 0.8245
vn 0.3916 -0.2302 0.8909
vn -0.3916 -0.2302 0.8909
vn 0.3762 0.0603 0.9246
vn -0.3762 0.0603 0.9246
vn -0.1352 0.2680 0.9539
vn -0.0656 0.0408 0.9970
vn -0.0000 0.0695 0.9976
vn 0.0656 0.0408 0.9970
vn 0.1352 0.2680 0.9539
vn -0.0000 -0.3615 0.9324
vn 0.2800 -0.3313 0.9010
vn -0.2800 -0.3313 0.9010
vn -0.0000 -0.2235 0.9747
vn 0.0852 -0.2182 0.9722
vn -0.0852 -0.2182 0.9722
vn 0.1140 -0.6543 0.7476
vn -0.0000 -0.6985 0.7157
vn -0.1140 -0.6543 0.7476
vn 0.0891 -0.3229 0.9422
vn -0.0891 -0.3229 0.9422
vn 0.1452 -0.1121 0.9830
vn -0.1452 -0.1121 0.9830
vn 0.3041 0.0070 0.9526
vn 0.1386 0.0029 0.9903
vn 0.1803 -0.0579 0.9819
vn 0.3187 -0.0882 0.9437
vn -0.1803 -0.0579 0.9819
vn -0.1386 0.0029 0.9903
vn -0.3041 0.0070 0.9526
vn -0.3187 -0.0882 0.9437
vn 0.2617 -0.0096 0.9651
vn -0.0000 0.0574 0.9983
vn -0.0000 -0.0041 1.0000
vn -0.2617 -0.0096 0.9651
vn -0.0000 -0.0342 0.9994
vn -0.0000 -0.0000 1.0000
vn 0.8174 -0.5744 -0.0442
vn -0.8174 -0.5744 -0.0442
vn 0.9494 0.2297 -0.2144
vn -0.9494 0.2297 -0.2144
vn 0.0825 0.9073 -0.4124
vn -0.0825 0.9073 -0.4124
vn -0.8836 0.3555 0.3047
vn -0.7610 0.5093 0.4018
vn -0.7895 0.4794 0.3832
vn 0.7895 0.4794 0.3832
vn 0.7610 0.5093 0.4018
vn 0.8836 0.3555 0.3047
vn 0.4207 -0.8797 0.2218
vn -0.4207 -0.8797 0.2218
vn 0.2873 -0.5747 0.7663
vn 0.3353 -0.6415 0.6899
vn 0.2206 -0.5640 0.7958
vn -0.0000 -0.5286 0.8489
vn -0.2206 -0.5640 0.7958
vn -0.3353 -0.6415 0.6899
vn -0.2873 -0.5747 0.7663
vn -0.6542 0.6019 0.4580
vn 0.6542 0.6019 0.4580
vn 0.1052 0.7892 0.6051
vn -0.1052 0.7892 0.6051
vn 0.7582 0.2916 0.5832
vn -0.7582 0.2916 0.5832
vn 0.3889 -0.7130 0.5834
vn -0.3889 -0.7130 0.5834
vn 0.0463 0.2314 0.9718
vn -0.0463 0.2314 0.9718
vn -0.0000 -0.4020 0.9156
vn 0.0335 -0.4018 0.9151
vn -0.0335 -0.4018 0.9151
vn -0.4452 -0.1610 0.8809
vn -0.3329 -0.3087 0.8910
vn -0.3838 -0.2450 0.8903
vn 0.3838 -0.2450 0.8903
vn 0.3329 -0.3087 0.8910
vn 0.4452 -0.1610 0.8809
vn -0.2182 -0.4364 0.8729
vn 0.2182 -0.4364 0.8729
vn 0.4341 -0.1290 0.8916
vn 0.3507 -0.0142 0.9364
vn -0.3507 -0.0142 0.9364
vn -0.4341 -0.1290 0.8916
vn 0.8429 0.2814 0.4587
vn 0.8473 0.2783 0.4524
vn -0.8473 0.2783 0.4524
vn -0.8429 0.2814 0.4587
vn 0.9534 0.2816 0.1079
vn 0.9166 0.1984 0.3470
vn -0.9166 0.1984 0.3470
vn -0.9534 0.2816 0.1079
vn 0.9592 0.2423 0.1460
vn 0.9385 0.1601 0.3060
vn -0.9385 0.1601 0.3060
vn -0.9592 0.2423 0.1460
vn 0.2237 -0.6539 0.7227
vn -0.0000 -0.6709 0.7415
vn -0.2237 -0.6539 0.7227
vn -0.1536 -0.1997 0.9677
vn -0.2081 -0.1564 0.9655
vn 0.1536 -0.1997 0.9677
vn 0.2081 -0.1564 0.9655
vn -0.2154 0.0007 0.9765
vn -0.1711 0.0760 0.9823
vn 0.2154 0.0007 0.9765
vn 0.1711 0.0760 0.9823
vn -0.0000 0.1961 0.9806
vn -0.0000 0.9615 0.2747
vn -0.1582 0.9494 0.2713
vn 0.1582 0.9494 0.2713
vn -0.6934 0.7082 0.1328
vn 0.6934 0.7082 0.1328
vn -1.0000 -0.0000 -0.0000
vn 1.0000 -0.0000 -0.0000
vn 0.3051 -0.9450 0.1181
vn -0.3051 -0.9450 0.1181
vn -0.0000 -0.2983 0.9545
vn 0.0484 -0.3072 0.9504
vn 0.0655 -0.3154 0.9467
vn -0.0484 -0.3072 0.9504
vn -0.0655 -0.3154 0.9467
vn 0.1353 -0.3479 0.9277
vn -0.1353 -0.3479 0.9277
vn -0.4511 -0.1605 0.8779
vn -0.5470 -0.3860 0.7429
vn -0.5433 -0.3743 0.7515
vn -0.4459 -0.1507 0.8823
vn 0.5433 -0.3743 0.7515
vn 0.5470 -0.3860 0.7429
vn 0.4511 -0.1605 0.8779
vn 0.4459 -0.1507 0.8823
vn -0.2984 -0.0026 0.9544
vn -0.2929 -0.0001 0.9561
vn 0.2984 -0.0026 0.9544
vn 0.2929 -0.0001 0.9561
vn -0.1121 0.1473 0.9827
vn -0.1167 0.1421 0.9829
vn 0.1121 0.1473 0.9827
vn 0.1167 0.1421 0.9829
vn -0.3743 -0.6317 0.6788
vn -0.3435 -0.6510 0.6769
vn 0.3435 -0.6510 0.6769
vn 0.3743 -0.6317 0.6788
vn -0.1369 -0.7531 0.6435
vn 0.1369 -0.7531 0.6435
vn 0.4920 -0.5184 0.6994
vn 0.4088 -0.6071 0.6814
vn -0.4920 -0.5184 0.6994
vn -0.4088 -0.6071 0.6814
vn 0.5788 -0.2822 0.7651
vn -0.5788 -0.2822 0.7651
vn 0.5718 0.0140 0.8203
vn -0.5718 0.0140 0.8203
vn 0.5542 0.2788 0.7843
vn 0.5329 0.3918 0.7500
vn -0.5329 0.3918 0.7500
vn -0.5542 0.2788 0.7843
vn 0.3817 0.5893 0.7121
vn 0.3701 0.5919 0.7160
vn -0.3701 0.5919 0.7160
vn -0.3817 0.5893 0.7121
vn 0.2074 0.4727 0.8565
vn 0.2215 0.5093 0.8316
vn -0.2215 0.5093 0.8316
vn -0.2074 0.4727 0.8565
vn 0.0688 0.3040 0.9502
vn 0.0746 0.3076 0.9486
vn -0.0746 0.3076 0.9486
vn -0.0688 0.3040 0.9502
vn 0.3053 -0.3397 0.8896
vn 0.5176 -0.3798 0.7667
vn 0.5010 -0.3839 0.7757
vn 0.3063 -0.3431 0.8879
vn -0.5010 -0.3839 0.7757
vn -0.5176 -0.3798 0.7667
vn -0.3053 -0.3397 0.8896
vn -0.3063 -0.3431 0.8879
vn 0.2811 -0.2610 0.9235
vn -0.2811 -0.2610 0.9235
vn -0.1386 -0.7633 0.6310
vn -0.2542 -0.6514 0.7149
vn -0.1401 -0.7621 0.6322
vn 0.2542 -0.6514 0.7149
vn 0.1386 -0.7633 0.6310
vn 0.1401 -0.7621 0.6322
vn -0.0260 -0.8455 0.5333
vn 0.0260 -0.8455 0.5333
vn -0.3548 -0.1497 0.9229
vn -0.3518 -0.2606 0.8991
vn -0.3549 -0.1286 0.9260
vn 0.3518 -0.2606 0.8991
vn 0.3548 -0.1497 0.9229
vn 0.3549 -0.1286 0.9260
vn -0.3523 -0.0110 0.9358
vn 0.3523 -0.0110 0.9358
vn -0.0847 0.5390 0.8380
vn -0.1317 0.4608 0.8777
vn -0.0831 0.5416 0.8365
vn 0.1317 0.4608 0.8777
vn 0.0847 0.5390 0.8380
vn 0.0831 0.5416 0.8365
vn 0.1905 0.6100 0.7692
vn 0.1489 0.6135 0.7755
vn -0.1905 0.6100 0.7692
vn -0.1489 0.6135 0.7755
vn 0.4406 0.5546 0.7059
vn 0.4245 0.5609 0.7108
vn -0.4406 0.5546 0.7059
vn -0.4245 0.5609 0.7108
vn 0.6423 0.3635 0.6748
vn 0.6875 0.2974 0.6625
vn -0.6423 0.3635 0.6748
vn -0.6875 0.2974 0.6625
vn 0.7575 -0.1942 0.6233
vn 0.7464 -0.2135 0.6303
vn -0.7464 -0.2135 0.6303
vn -0.7575 -0.1942 0.6233
vn 0.8029 0.0286 0.5955
vn 0.8052 0.0150 0.5928
vn -0.8052 0.0150 0.5928
vn -0.8029 0.0286 0.5955
vn -0.5306 0.8111 -0.2461
vn 0.5306 0.8111 -0.2461
vn -0.8511 0.3695 -0.3730
vn 0.8511 0.3695 -0.3730
vn -0.2446 0.8675 -0.4331
vn 0.2446 0.8675 -0.4331
vn 0.5924 0.7465 -0.3030
vn 0.5097 0.8030 -0.3089
vn 0.4251 0.8652 -0.2658
vn -0.4251 0.8652 -0.2658
vn -0.5097 0.8030 -0.3089
vn -0.5924 0.7465 -0.3030
vn 0.3284 0.8953 -0.3010
vn 0.3515 0.9088 -0.2249
vn -0.3515 0.9088 -0.2249
vn -0.3284 0.8953 -0.3010
vn 0.2821 0.9151 -0.2880
vn 0.3428 0.9119 -0.2256
vn -0.3428 0.9119 -0.2256
vn -0.2821 0.9151 -0.2880
vn 0.8561 0.1340 -0.4991
vn -0.8561 0.1340 -0.4991
vn 0.5342 -0.7233 -0.4376
vn 0.4547 -0.7750 -0.4388
vn 0.4706 -0.7655 -0.4389
vn -0.4706 -0.7655 -0.4389
vn -0.4547 -0.7750 -0.4388
vn -0.5342 -0.7233 -0.4376
vn 0.2662 -0.8569 -0.4414
vn 0.3077 -0.8433 -0.4406
vn -0.3077 -0.8433 -0.4406
vn -0.2662 -0.8569 -0.4414
vn -0.0000 -0.5971 -0.8022
vn 0.2335 -0.5806 -0.7800
vn -0.2335 -0.5806 -0.7800
vn -0.0000 -0.2978 -0.9546
vn -0.0000 -0.0601 -0.9982
vn 0.1993 -0.0142 -0.9798
vn 0.1293 -0.1789 -0.9753
vn -0.1993 -0.0142 -0.9798
vn -0.1293 -0.1789 -0.9753
vn -0.0000 -0.4566 -0.8897
vn 0.0547 -0.3485 -0.9357
vn -0.0547 -0.3485 -0.9357
vn 0.1168 -0.9765 -0.1809
vn -0.0000 -0.9902 -0.1398
vn 0.1170 -0.9758 -0.1850
vn -0.1168 -0.9765 -0.1809
vn -0.1170 -0.9758 -0.1850
vn 0.1184 -0.9669 -0.2260
vn -0.1184 -0.9669 -0.2260
vn 0.9542 0.0464 -0.2957
vn 0.9597 -0.0085 -0.2808
vn 0.9399 0.1289 -0.3163
vn -0.9597 -0.0085 -0.2808
vn -0.9542 0.0464 -0.2957
vn -0.9399 0.1289 -0.3163
vn 0.9290 0.1565 -0.3354
vn 0.8892 -0.0177 -0.4572
vn -0.9290 0.1565 -0.3354
vn -0.8892 -0.0177 -0.4572
vn 0.0795 -0.0907 -0.9927
vn 0.1626 0.0207 -0.9865
vn -0.0795 -0.0907 -0.9927
vn -0.1626 0.0207 -0.9865
vn -0.0188 -0.2177 -0.9758
vn 0.0188 -0.2177 -0.9758
vn 0.9146 0.1117 -0.3885
vn 0.7538 -0.2926 -0.5884
vn -0.7538 -0.2926 -0.5884
vn -0.9146 0.1117 -0.3885
vn 0.9230 0.1987 -0.3296
vn -0.9230 0.1987 -0.3296
vn 0.9190 0.3282 -0.2182
vn 0.9201 0.3267 -0.2159
vn 0.9364 0.3223 -0.1386
vn -0.9364 0.3223 -0.1386
vn -0.9201 0.3267 -0.2159
vn -0.9190 0.3282 -0.2182
vn 0.9407 0.3338 -0.0607
vn -0.9407 0.3338 -0.0607
vn 0.1761 -0.8805 -0.4402
vn -0.1761 -0.8805 -0.4402
vn 0.3630 -0.2800 -0.8887
vn 0.4237 -0.3240 -0.8459
vn 0.5191 -0.6556 -0.5483
vn 0.3547 -0.6514 -0.6708
vn -0.5191 -0.6556 -0.5483
vn -0.4237 -0.3240 -0.8459
vn -0.3630 -0.2800 -0.8887
vn -0.3547 -0.6514 -0.6708
vn 0.5214 -0.8255 -0.2162
vn 0.3017 -0.8971 -0.3227
vn -0.5214 -0.8255 -0.2162
vn -0.3017 -0.8971 -0.3227
vn 0.2920 -0.9449 -0.1477
vn 0.2986 -0.9413 -0.1575
vn -0.2920 -0.9449 -0.1477
vn -0.2986 -0.9413 -0.1575
vn 0.3139 -0.9321 -0.1807
vn -0.3139 -0.9321 -0.1807
vn 0.9762 -0.2083 -0.0609
vn -0.9762 -0.2083 -0.0609
vn 0.8267 -0.5066 0.2447
vn 0.7152 -0.6950 0.0736
vn 0.9009 -0.4313 -0.0484
vn -0.7152 -0.6950 0.0736
vn -0.8267 -0.5066 0.2447
vn -0.9009 -0.4313 -0.0484
vn 0.3449 -0.1158 -0.9315
vn 0.4182 -0.1915 -0.8879
vn -0.4182 -0.1915 -0.8879
vn -0.3449 -0.1158 -0.9315
vn -0.0000 0.9715 0.2372
vn 0.1203 0.9644 0.2355
vn 0.1267 0.9915 0.0284
vn -0.0000 0.9997 0.0232
vn -0.1267 0.9915 0.0284
vn -0.1203 0.9644 0.2355
vn 0.1275 0.9744 -0.1851
vn -0.0000 0.9824 -0.1867
vn -0.1275 0.9744 -0.1851
vn 0.3492 0.5947 -0.7241
vn 0.4035 0.5403 -0.7384
vn 0.4274 0.5144 -0.7435
vn -0.4274 0.5144 -0.7435
vn -0.4035 0.5403 -0.7384
vn -0.3492 0.5947 -0.7241
vn 0.4153 0.8981 -0.1449
vn 0.3756 0.9142 -0.1522
vn -0.4153 0.8981 -0.1449
vn -0.3756 0.9142 -0.1522
vn 0.1845 0.7036 0.6863
vn -0.1845 0.7036 0.6863
vn 0.7036 0.6576 0.2693
vn 0.6056 0.7794 0.1608
vn 0.6575 0.7533 0.0124
vn 0.6788 0.7318 -0.0612
vn -0.6575 0.7533 0.0124
vn -0.6056 0.7794 0.1608
vn -0.7036 0.6576 0.2693
vn -0.6788 0.7318 -0.0612
vn 0.7033 0.6806 -0.2053
vn 0.6762 0.7112 -0.1922
vn -0.7033 0.6806 -0.2053
vn -0.6762 0.7112 -0.1922
vn 0.6679 0.2007 -0.7166
vn 0.5933 0.3133 -0.7415
vn 0.5582 0.3594 -0.7478
vn -0.5582 0.3594 -0.7478
vn -0.5933 0.3133 -0.7415
vn -0.6679 0.2007 -0.7166
vn 0.6423 0.7459 -0.1761
vn 0.7012 0.7120 0.0382
vn -0.7012 0.7120 0.0382
vn -0.6423 0.7459 -0.1761
vn 0.7517 0.5344 0.3865
vn -0.7517 0.5344 0.3865
vn 0.7388 0.3972 0.5444
vn -0.7388 0.3972 0.5444
vn 0.3428 0.9261 -0.1579
vn -0.3428 0.9261 -0.1579
vn -0.0000 0.5894 0.8078
vn 0.2270 0.5740 0.7867
vn -0.2270 0.5740 0.7867
vn -0.1722 0.1046 -0.9795
vn 0.1722 0.1046 -0.9795
vn 0.0425 0.9150 0.4013
vn -0.0425 0.9150 0.4013
vn -0.0000 0.1871 0.9823
vn -0.1616 0.1847 0.9694
vn 0.1616 0.1847 0.9694
vn 0.9791 0.1973 0.0483
vn 0.9638 0.1225 0.2368
vn 0.9768 0.1622 0.1396
vn -0.9638 0.1225 0.2368
vn -0.9791 0.1973 0.0483
vn -0.9768 0.1622 0.1396
vn 0.9989 -0.0455 0.0062
vn 0.9790 0.1363 0.1519
vn -0.9790 0.1363 0.1519
vn -0.9989 -0.0455 0.0062
vn 0.9966 0.0082 -0.0818
vn 0.9879 0.1316 -0.0816
vn -0.9879 0.1316 -0.0816
vn -0.9966 0.0082 -0.0818
vn 0.9938 0.0312 -0.1070
vn -0.9938 0.0312 -0.1070
vn 0.7260 -0.6715 0.1484
vn 0.5809 -0.8007 -0.1463
vn 0.5731 -0.8037 0.1600
vn -0.5809 -0.8007 -0.1463
vn -0.7260 -0.6715 0.1484
vn -0.5731 -0.8037 0.1600
vn 0.4439 -0.8877 -0.1225
vn -0.4439 -0.8877 -0.1225
vn 0.4465 -0.8644 0.2310
vn 0.5255 -0.8172 0.2366
vn -0.5255 -0.8172 0.2366
vn -0.4465 -0.8644 0.2310
vn 0.6066 -0.7578 0.2405
vn 0.6509 -0.7197 0.2414
vn -0.6509 -0.7197 0.2414
vn -0.6066 -0.7578 0.2405
vn 0.2637 -0.4499 0.8533
vn -0.2637 -0.4499 0.8533
vn 0.5488 -0.2470 -0.7986
vn 0.5508 -0.2624 -0.7923
vn 0.5202 -0.3393 -0.7838
vn 0.5267 -0.2981 -0.7961
vn -0.5202 -0.3393 -0.7838
vn -0.5508 -0.2624 -0.7923
vn -0.5488 -0.2470 -0.7986
vn -0.5267 -0.2981 -0.7961
vn 0.5276 -0.7682 -0.3627
vn 0.3190 -0.8494 -0.4205
vn -0.5276 -0.7682 -0.3627
vn -0.3190 -0.8494 -0.4205
vn 0.4263 0.2376 0.8728
vn 0.2458 0.2861 0.9261
vn 0.2206 0.2631 0.9392
vn 0.3888 0.3119 0.8669
vn -0.2206 0.2631 0.9392
vn -0.2458 0.2861 0.9261
vn -0.4263 0.2376 0.8728
vn -0.3888 0.3119 0.8669
vn 0.3680 0.1421 0.9189
vn 0.3389 0.1324 0.9315
vn -0.3680 0.1421 0.9189
vn -0.3389 0.1324 0.9315
vn 0.2522 0.0020 0.9677
vn 0.2540 0.0280 0.9668
vn -0.2522 0.0020 0.9677
vn -0.2540 0.0280 0.9668
vn 0.3759 -0.0688 0.9241
vn 0.3264 -0.0734 0.9424
vn -0.3759 -0.0688 0.9241
vn -0.3264 -0.0734 0.9424
vn 0.5507 -0.1841 0.8142
vn 0.5534 -0.1883 0.8114
vn -0.5507 -0.1841 0.8142
vn -0.5534 -0.1883 0.8114
vn 0.6225 -0.3045 0.7210
vn -0.6225 -0.3045 0.7210
vn 0.4500 0.6590 0.6027
vn -0.4500 0.6590 0.6027
vn -0.2667 0.8309 0.4884
vn 0.2667 0.8309 0.4884
vn -0.8284 0.2291 0.5111
vn 0.8284 0.2291 0.5111
vn -0.5251 -0.3566 0.7727
vn 0.5251 -0.3566 0.7727
vn 0.6043 -0.5040 0.6171
vn 0.5587 -0.6583 0.5044
vn 0.3577 -0.7839 0.5074
vn 0.4546 -0.5665 0.6873
vn -0.3577 -0.7839 0.5074
vn -0.5587 -0.6583 0.5044
vn -0.6043 -0.5040 0.6171
vn -0.4546 -0.5665 0.6873
vn 0.6434 -0.4409 0.6259
vn 0.6878 -0.5533 0.4698
vn -0.6878 -0.5533 0.4698
vn -0.6434 -0.4409 0.6259
vn 0.7220 -0.6827 -0.1126
vn 0.8615 -0.4880 -0.1400
vn -0.7220 -0.6827 -0.1126
vn -0.8615 -0.4880 -0.1400
vn -0.1919 0.2860 0.9388
vn 0.1919 0.2860 0.9388
vn 0.1034 0.1551 0.9825
vn -0.1034 0.1551 0.9825
vn 0.0841 0.9318 0.3530
vn 0.0283 0.9753 0.2191
vn 0.0296 0.9810 0.1917
vn -0.0296 0.9810 0.1917
vn -0.0283 0.9753 0.2191
vn -0.0841 0.9318 0.3530
vn 0.6446 -0.0883 0.7594
vn -0.6446 -0.0883 0.7594
vn 0.4309 0.4740 0.7678
vn -0.4309 0.4740 0.7678
vn 0.7481 -0.5799 0.3224
vn 0.8720 -0.4240 0.2446
vn 0.9455 -0.3256 -0.0079
vn 0.7735 -0.5784 0.2590
vn -0.9455 -0.3256 -0.0079
vn -0.8720 -0.4240 0.2446
vn -0.7481 -0.5799 0.3224
vn -0.7735 -0.5784 0.2590
vn 0.5863 -0.4221 0.6914
vn 0.5861 -0.4216 0.6919
vn -0.5863 -0.4221 0.6914
vn -0.5861 -0.4216 0.6919
vn 0.9818 -0.1804 -0.0591
vn -0.9818 -0.1804 -0.0591
vn 0.9972 -0.0181 -0.0725
vn -0.9972 -0.0181 -0.0725
vn 0.7599 -0.6324 0.1506
vn 0.7597 -0.6326 0.1509
vn 0.6682 -0.6888 0.2811
vn -0.7597 -0.6326 0.1509
vn -0.7599 -0.6324 0.1506
vn -0.6682 -0.6888 0.2811
vn 0.7489 -0.6531 0.1120
vn -0.7489 -0.6531 0.1120
vn 0.7022 -0.7022 0.1170
vn -0.7022 -0.7022 0.1170
vn 0.1840 0.9816 -0.0511
vn -0.1840 0.9816 -0.0511
vn 0.9352 0.3301 0.1284
vn -0.9352 0.3301 0.1284
vn 0.6633 -0.7463 0.0553
vn -0.6633 -0.7463 0.0553
vn -0.0328 0.9969 0.0718
vn -0.0085 0.9970 0.0767
vn 0.0328 0.9969 0.0718
vn 0.0085 0.9970 0.0767
vn 0.3762 -0.8546 0.3580
vn -0.3762 -0.8546 0.3580
vn 0.2733 -0.8925 0.3587
vn -0.2733 -0.8925 0.3587
vn -0.8328 -0.5080 -0.2200
vn 0.8328 -0.5080 -0.2200
vn -0.8339 0.2377 -0.4981
vn 0.8339 0.2377 -0.4981
vn -0.5655 0.7847 -0.2539
vn 0.5655 0.7847 -0.2539
vn -0.0560 0.9962 0.0672
vn 0.0560 0.9962 0.0672
vn 0.0968 0.0028 0.9953
vn 0.1445 0.0222 0.9893
vn 0.4472 0.0418 0.8934
vn 0.1984 0.0051 0.9801
vn -0.4472 0.0418 0.8934
vn -0.1445 0.0222 0.9893
vn -0.0968 0.0028 0.9953
vn -0.1984 0.0051 0.9801
vn 0.4316 -0.0331 0.9015
vn 0.3281 0.0002 0.9446
vn -0.4316 -0.0331 0.9015
vn -0.3281 0.0002 0.9446
vn 0.3447 -0.0767 0.9356
vn 0.3178 0.0937 0.9435
vn -0.3447 -0.0767 0.9356
vn -0.3178 0.0937 0.9435
vn 0.4365 -0.0136 0.8996
vn 0.3573 0.2980 0.8851
vn -0.4365 -0.0136 0.8996
vn -0.3573 0.2980 0.8851
vn 0.3313 0.4175 0.8461
vn 0.3864 0.0829 0.9186
vn -0.3864 0.0829 0.9186
vn -0.3313 0.4175 0.8461
vn 0.3268 -0.0480 0.9439
vn -0.3268 -0.0480 0.9439
vn 0.1738 -0.0388 0.9840
vn -0.1738 -0.0388 0.9840
vn 0.0637 -0.0106 0.9979
vn -0.0637 -0.0106 0.9979
vn -0.3637 0.7039 0.6101
vn 0.3637 0.7039 0.6101
vn 0.5292 -0.1039 0.8421
vn 0.6299 0.0355 0.7759
vn -0.5292 -0.1039 0.8421
vn -0.6299 0.0355 0.7759
vn 0.4823 -0.2084 0.8509
vn -0.4823 -0.2084 0.8509
vn 0.5321 0.0323 0.8460
vn -0.5321 0.0323 0.8460
vn 0.4806 0.3390 0.8087
vn -0.4806 0.3390 0.8087
vn 0.2394 -0.9696 -0.0510
vn -0.1239 -0.9677 -0.2197
vn -0.0714 -0.9798 -0.1868
vn 0.3614 -0.9321 -0.0245
vn 0.0714 -0.9798 -0.1868
vn 0.1239 -0.9677 -0.2197
vn -0.2394 -0.9696 -0.0510
vn -0.3614 -0.9321 -0.0245
vn 0.5006 -0.8657 0.0080
vn -0.5006 -0.8657 0.0080
vn 0.9285 -0.2497 0.2748
vn -0.9285 -0.2497 0.2748
vn 0.8393 0.5424 -0.0378
vn -0.8393 0.5424 -0.0378
vn -0.3733 0.9104 -0.1783
vn -0.2355 0.9367 -0.2589
vn -0.3204 0.9236 -0.2105
vn 0.2355 0.9367 -0.2589
vn 0.3733 0.9104 -0.1783
vn 0.3204 0.9236 -0.2105
vn -0.6468 0.7611 -0.0491
vn -0.6453 0.7623 -0.0498
vn 0.6468 0.7611 -0.0491
vn 0.6453 0.7623 -0.0498
vn -0.3510 -0.0181 -0.9362
vn -0.4048 -0.0158 -0.9142
vn -0.5384 -0.0098 -0.8427
vn 0.5384 -0.0098 -0.8427
vn 0.4048 -0.0158 -0.9142
vn 0.3510 -0.0181 -0.9362
vn -0.1910 -0.0241 -0.9813
vn 0.1910 -0.0241 -0.9813
vn 0.4046 0.0266 -0.9141
vn -0.4046 0.0266 -0.9141
vn -0.7819 0.6231 0.0197
vn 0.7819 0.6231 0.0197
vn 0.5428 -0.2063 -0.8142
vn -0.5428 -0.2063 -0.8142
vn -0.2474 -0.9231 -0.2945
vn 0.2474 -0.9231 -0.2945
s 1
f 47//1 1//2 3//3 45//4
f 4//5 2//6 48//7 46//8
f 45//4 3//3 5//9 43//9
f 6//10 4//5 46//8 44//10
f 3//3 9//11 7//12 5//12
f 8//13 10//14 4//5 6//13
f 1//2 11//15 9//11 3//3
f 10//14 12//16 2//6 4//5
f 11//15 13//17 15//18 9//11
f 16//19 14//20 12//16 10//14
f 9//11 15//18 17//21 7//21
f 18//22 16//19 10//14 8//22
f 15//23 21//24 19//25 17//25
f 20//26 22//27 16//28 18//26
f 13//29 23//30 21//24 15//23
f 22//27 24//31 14//32 16//28
f 23//30 25//33 27//34 21//24
f 28//35 26//36 24//31 22//27
f 21//24 27//34 29//37 19//37
f 30//38 28//35 22//27 20//38
f 27//39 33//40 31//41 29//41
f 32//42 34//43 28//44 30//42
f 25//45 35//46 33//40 27//39
f 34//43 36//47 26//48 28//44
f 35//46 37//49 39//50 33//40
f 40//51 38//52 36//47 34//43
f 33//40 39//50 41//53 31//53
f 42//54 40//51 34//43 32//54
f 39//50 45//4 43//55 41//55
f 44//56 46//8 40//51 42//56
f 37//49 47//1 45//4 39//50
f 46//8 48//7 38//52 40//51
f 47//57 37//57 51//57 49//57
f 52//58 38//58 48//58 50//58
f 37//59 35//59 53//59 51//59
f 54//60 36//60 38//60 52//60
f 35//61 25//61 55//61 53//61
f 56//62 26//62 36//62 54//62
f 25//63 23//63 57//63 55//63
f 58//64 24//64 26//64 56//64
f 23//65 13//65 59//65 57//65
f 60//66 14//66 24//66 58//66
f 13//67 11//67 63//67 59//67
f 64//68 12//68 14//68 60//68
f 11//69 1//69 65//69 63//69
f 66//70 2//70 12//70 64//70
f 1//71 47//71 49//71 65//71
f 50//72 48//72 2//72 66//72
f 61//73 65//74 49//75
f 50//76 66//77 62//78
f 63//79 65//74 61//73
f 62//78 66//77 64//80
f 61//73 59//81 63//79
f 64//80 60//82 62//78
f 61//73 57//83 59//81
f 60//82 58//84 62//78
f 61//73 55//85 57//83
f 58//84 56//86 62//78
f 61//73 53//87 55//85
f 56//86 54//88 62//78
f 61//73 51//89 53//87
f 54//88 52//90 62//78
f 61//73 49//75 51//89
f 52//90 50//76 62//78
f 89//91 174//92 176//93 91//94
f 176//93 175//95 90//96 91//94
f 87//97 172//98 174//92 89//91
f 175//95 173//99 88//100 90//96
f 85//101 170//102 172//98 87//103
f 173//99 171//104 86//105 88//106
f 83//107 168//108 170//102 85//101
f 171//104 169//109 84//110 86//105
f 81//111 166//112 168//108 83//107
f 169//109 167//113 82//114 84//110
f 79//115 92//116 146//117 164//115
f 147//118 93//119 80//120 165//120
f 92//116 94//121 148//122 146//117
f 149//123 95//124 93//119 147//118
f 94//121 96//125 150//126 148//122
f 151//127 97//128 95//124 149//123
f 96//125 98//129 152//130 150//126
f 153//131 99//132 97//128 151//127
f 98//133 100//134 154//135 152//133
f 155//136 101//137 99//138 153//138
f 100//134 102//139 156//140 154//135
f 157//141 103//142 101//137 155//136
f 102//139 104//143 158//143 156//140
f 159//144 105//144 103//142 157//141
f 104//145 106//145 160//145 158//145
f 161//146 107//146 105//146 159//146
f 106//147 108//148 162//149 160//147
f 163//150 109//151 107//152 161//152
f 108//148 67//153 68//153 162//149
f 68//154 67//154 109//151 163//150
f 110//155 128//156 160//157 162//158
f 161//159 129//160 111//161 163//162
f 128//156 179//163 158//164 160//157
f 159//165 180//166 129//160 161//159
f 126//167 156//168 158//164 179//163
f 159//165 157//169 127//170 180//166
f 124//171 154//172 156//168 126//167
f 157//169 155//173 125//174 127//170
f 122//175 152//130 154//172 124//171
f 155//173 153//131 123//176 125//174
f 120//177 150//126 152//130 122//175
f 153//131 151//127 121//178 123//176
f 118//179 148//122 150//126 120//177
f 151//127 149//123 119//180 121//178
f 116//181 146//117 148//122 118//179
f 149//123 147//118 117//182 119//180
f 114//183 164//183 146//117 116//181
f 147//118 165//184 115//184 117//182
f 114//185 181//186 177//187 164//185
f 177//187 182//188 115//189 165//189
f 110//155 162//158 68//190 112//191
f 68//190 163//162 111//161 113//192
f 112//191 68//190 178//193 183//194
f 178//193 68//190 113//192 184//195
f 177//187 181//186 183//194 178//193
f 184//195 182//188 177//187 178//193
f 135//196 137//197 176//93 174//92
f 176//93 137//197 136//198 175//95
f 133//199 135//196 174//92 172//98
f 175//95 136//198 134//200 173//99
f 131//201 133//199 172//98 170//102
f 173//99 134//200 132//202 171//104
f 166//203 187//204 185//205 168//206
f 186//207 188//208 167//209 169//210
f 131//201 170//102 168//206 185//205
f 169//210 171//104 132//202 186//207
f 144//211 190//212 189//213 187//204
f 189//213 190//212 145//214 188//208
f 185//205 187//204 189//213 69//215
f 189//213 188//208 186//207 69//215
f 130//216 131//201 185//205 69//215
f 186//207 132//202 130//216 69//215
f 142//217 193//217 191//217 144//217
f 192//218 194//218 143//218 145//218
f 140//219 195//219 193//219 142//219
f 194//220 196//220 141//220 143//220
f 139//221 197//221 195//221 140//221
f 196//222 198//222 139//222 141//222
f 138//223 71//224 197//225 139//223
f 198//226 71//227 138//228 139//228
f 190//229 144//229 191//229 70//229
f 192//230 145//230 190//230 70//230
f 70//231 191//232 206//233 208//234
f 207//235 192//236 70//237 208//234
f 71//224 199//238 200//238 197//225
f 201//239 199//239 71//227 198//226
f 197//240 200//240 202//240 195//240
f 203//241 201//241 198//241 196//241
f 195//242 202//242 204//242 193//242
f 205//243 203//243 196//243 194//243
f 193//244 204//244 206//233 191//232
f 207//235 205//245 194//245 192//236
f 199//246 204//246 202//246 200//246
f 203//247 205//247 199//247 201//247
f 199//248 208//234 206//233 204//249
f 207//235 208//234 199//248 205//250
f 139//251 140//252 164//253 177//251
f 165//254 141//255 139//256 177//256
f 140//252 142//257 211//257 164//253
f 212//258 143//258 141//255 165//254
f 142//259 144//211 213//260 211//259
f 214//261 145//214 143//262 212//262
f 144//211 187//204 166//203 213//260
f 167//209 188//208 145//214 214//261
f 81//111 209//263 213//264 166//112
f 214//265 210//266 82//114 167//113
f 209//263 215//267 211//268 213//264
f 212//269 216//270 210//266 214//265
f 79//271 164//272 211//268 215//267
f 212//269 165//273 80//274 216//270
f 131//275 130//276 72//276 222//275
f 72//276 130//276 132//277 223//277
f 133//199 131//201 222//278 220//279
f 223//280 132//202 134//200 221//281
f 135//282 133//199 220//279 218//283
f 221//281 134//200 136//284 219//285
f 137//286 135//282 218//283 217//286
f 219//285 136//284 137//286 217//286
f 217//287 218//288 229//288 231//287
f 230//289 219//289 217//287 231//287
f 218//290 220//290 227//290 229//290
f 228//291 221//291 219//291 230//291
f 220//292 222//292 225//292 227//292
f 226//293 223//293 221//293 228//293
f 222//294 72//294 224//294 225//294
f 224//295 72//295 223//295 226//295
f 224//296 231//296 229//297 225//298
f 230//299 231//296 224//296 226//300
f 225//298 229//297 227//301
f 228//302 230//299 226//300
f 183//303 181//304 234//305 232//306
f 235//307 182//308 184//309 233//310
f 112//311 183//303 232//306 254//312
f 233//310 184//309 113//313 255//314
f 110//315 112//311 254//312 256//316
f 255//314 113//313 111//317 257//318
f 181//304 114//319 252//320 234//305
f 253//321 115//322 182//308 235//307
f 114//319 116//323 250//323 252//320
f 251//324 117//324 115//322 253//321
f 116//181 118//179 248//325 250//326
f 249//327 119//180 117//182 251//328
f 118//179 120//177 246//329 248//325
f 247//330 121//178 119//180 249//327
f 120//177 122//175 244//331 246//329
f 245//332 123//176 121//178 247//330
f 122//175 124//333 242//334 244//331
f 243//335 125//336 123//176 245//332
f 124//333 126//337 240//338 242//334
f 241//339 127//340 125//336 243//335
f 126//337 179//341 236//342 240//338
f 237//343 180//344 127//340 241//339
f 179//341 128//345 238//346 236//342
f 239//347 129//348 180//344 237//343
f 128//345 110//315 256//316 238//346
f 257//318 111//317 129//348 239//347
f 238//349 256//350 258//351 276//352
f 259//353 257//354 239//355 277//356
f 236//357 238//349 276//352 278//357
f 277//356 239//355 237//358 279//358
f 240//359 236//360 278//360 274//361
f 279//362 237//362 241//363 275//364
f 242//365 240//359 274//361 272//365
f 275//364 241//363 243//366 273//366
f 244//367 242//368 272//368 270//369
f 273//370 243//370 245//371 271//372
f 246//373 244//367 270//369 268//373
f 271//372 245//371 247//374 269//374
f 248//375 246//376 268//376 266//377
f 269//378 247//378 249//379 267//380
f 250//381 248//375 266//377 264//382
f 267//380 249//379 251//383 265//384
f 252//385 250//381 264//382 262//386
f 265//384 251//383 253//387 263//388
f 234//389 252//385 262//386 280//390
f 263//388 253//387 235//391 281//392
f 256//350 254//393 260//394 258//351
f 261//395 255//396 257//354 259//353
f 254//393 232//397 282//398 260//394
f 283//399 233//400 255//396 261//395
f 232//397 234//389 280//390 282//398
f 281//392 235//391 233//400 283//399
f 67//401 108//401 284//401 73//401
f 285//402 109//402 67//402 73//402
f 108//403 106//403 286//403 284//403
f 287//404 107//404 109//404 285//404
f 106//405 104//405 288//405 286//405
f 289//406 105//406 107//406 287//406
f 104//407 102//408 290//409 288//407
f 291//410 103//411 105//412 289//412
f 102//408 100//413 292//414 290//409
f 293//415 101//416 103//411 291//410
f 100//413 98//417 294//418 292//414
f 295//419 99//420 101//416 293//415
f 98//421 96//421 296//421 294//421
f 297//422 97//422 99//422 295//422
f 96//423 94//424 298//425 296//423
f 299//426 95//427 97//428 297//428
f 94//424 92//429 300//430 298//425
f 301//431 93//432 95//427 299//426
f 308//433 309//433 328//434 338//434
f 329//435 309//433 308//433 339//435
f 307//436 308//437 338//438 336//439
f 339//440 308//437 307//436 337//441
f 306//442 307//436 336//439 340//443
f 337//441 307//436 306//442 341//444
f 89//445 91//446 306//446 340//447
f 306//446 91//446 90//448 341//449
f 87//450 89//445 340//447 334//450
f 341//449 90//448 88//451 335//451
f 85//452 87//453 334//453 330//454
f 335//455 88//455 86//456 331//457
f 83//458 85//452 330//454 332//459
f 331//457 86//456 84//460 333//461
f 330//462 336//439 338//438 332//463
f 339//440 337//441 331//464 333//465
f 330//462 334//466 340//443 336//439
f 341//444 335//467 331//464 337//441
f 326//468 332//459 338//469 328//469
f 339//470 333//461 327//471 329//470
f 81//472 83//458 332//459 326//468
f 333//461 84//460 82//473 327//471
f 209//474 342//475 344//476 215//267
f 345//477 343//478 210//479 216//270
f 81//472 326//468 342//475 209//474
f 343//478 327//471 82//473 210//479
f 79//271 215//267 344//476 346//480
f 345//477 216//270 80//274 347//481
f 79//482 346//482 300//430 92//429
f 301//431 347//483 80//483 93//432
f 77//484 324//485 352//486 304//487
f 353//488 325//489 77//490 304//491
f 304//487 352//486 350//492 78//493
f 351//494 353//488 304//491 78//495
f 78//493 350//492 348//496 305//497
f 349//498 351//494 78//495 305//499
f 305//497 348//496 328//500 309//500
f 329//501 349//498 305//499 309//501
f 326//502 328//502 348//502 342//502
f 349//503 329//503 327//503 343//503
f 296//504 298//504 318//505 310//506
f 319//507 299//508 297//508 311//509
f 76//510 316//511 324//485 77//484
f 325//489 317//512 76//513 77//490
f 302//514 358//515 356//516 303//517
f 357//518 359//519 302//514 303//517
f 303//517 356//516 354//520 75//521
f 355//522 357//518 303//517 75//521
f 75//523 354//524 316//525 76//523
f 317//526 355//527 75//528 76//528
f 292//414 294//418 362//529 364//530
f 363//531 295//419 293//415 365//532
f 364//533 362//533 368//533 366//533
f 369//534 363//534 365//534 367//534
f 366//535 368//536 370//537 372//538
f 371//539 369//540 367//541 373//542
f 372//538 370//537 376//543 374//544
f 377//545 371//539 373//542 375//546
f 314//547 378//548 374//549 376//547
f 375//550 379//551 315//552 377//552
f 316//525 354//524 374//549 378//548
f 375//550 355//527 317//526 379//551
f 354//553 356//554 372//538 374//544
f 373//542 357//555 355//556 375//546
f 356//554 358//557 366//535 372//538
f 367//541 359//558 357//555 373//542
f 358//557 360//559 364//559 366//535
f 365//560 361//560 359//558 367//541
f 290//409 292//414 364//530 360//561
f 365//532 293//415 291//410 361//562
f 74//563 360//564 358//564 302//563
f 359//565 361//565 74//563 302//563
f 284//566 286//566 288//566 290//566
f 289//567 287//567 285//567 291//567
f 284//568 290//568 360//568 74//568
f 361//569 291//569 285//569 74//569
f 73//570 284//571 74//570
f 74//570 285//572 73//570
f 294//573 296//573 310//574 362//575
f 311//576 297//577 295//577 363//578
f 310//574 312//579 368//580 362//575
f 369//581 313//582 311//576 363//578
f 312//579 382//583 370//584 368//580
f 371//585 383//586 313//582 369//581
f 314//587 376//587 370//584 382//583
f 371//585 377//588 315//588 383//586
f 348//589 350//492 386//590 384//591
f 387//592 351//494 349//593 385//594
f 318//505 384//591 386//590 320//595
f 387//592 385//594 319//507 321//596
f 298//597 300//598 384//591 318//505
f 385//594 301//599 299//600 319//507
f 300//598 344//601 342//602 384//591
f 343//603 345//604 301//599 385//594
f 342//602 348//589 384//591
f 385//594 349//593 343//603
f 300//605 346//605 344//605
f 345//606 347//606 301//606
f 314//607 322//608 380//609 378//610
f 381//611 323//612 315//613 379//614
f 316//511 378//610 380//609 324//485
f 381//611 379//614 317//512 325//489
f 320//595 386//590 380//615 322//616
f 381//617 387//592 321//596 323//618
f 350//492 352//486 380//615 386//590
f 381//617 353//488 351//494 387//592
f 324//485 380//609 352//486
f 353//488 381//611 325//489
f 400//619 388//620 414//621 402//622
f 415//623 389//624 401//625 403//626
f 400//619 402//622 404//627 398//628
f 405//629 403//626 401//625 399//630
f 398//628 404//627 406//631 396//632
f 407//633 405//629 399//630 397//634
f 396//632 406//631 408//635 394//636
f 409//637 407//633 397//634 395//638
f 394//636 408//635 410//639 392//640
f 411//641 409//637 395//638 393//642
f 392//640 410//639 412//643 390//643
f 413//644 411//641 393//642 391//644
f 410//645 420//645 418//645 412//645
f 419//646 421//646 411//646 413//646
f 408//647 422//647 420//647 410//647
f 421//648 423//648 409//648 411//648
f 406//649 424//649 422//649 408//649
f 423//650 425//650 407//650 409//650
f 404//651 426//651 424//651 406//651
f 425//652 427//652 405//652 407//652
f 402//653 428//654 426//655 404//656
f 427//657 429//658 403//659 405//660
f 402//653 414//661 416//662 428//654
f 417//663 415//664 403//659 429//658
f 318//505 320//595 444//665 442//666
f 445//667 321//596 319//507 443//668
f 320//669 390//669 412//669 444//669
f 413//670 391//670 321//670 445//670
f 310//506 318//505 442//666 312//579
f 443//668 319//507 311//509 313//582
f 382//671 430//671 414//621 388//620
f 415//623 431//672 383//672 389//624
f 412//673 418//674 440//675 444//673
f 441//676 419//677 413//678 445//678
f 438//679 446//679 444//679 440//679
f 445//680 447//680 439//680 441//680
f 434//681 446//681 438//681 436//681
f 439//682 447//682 435//682 437//682
f 432//683 448//684 446//685 434//686
f 447//687 449//688 433//689 435//690
f 430//691 448//684 432//683 450//692
f 433//689 449//688 431//693 451//694
f 414//661 430//691 450//692 416//662
f 451//694 431//693 415//664 417//663
f 312//579 448//684 430//695 382//583
f 431//696 449//688 313//582 383//586
f 312//579 442//666 446//685 448//684
f 447//687 443//668 313//582 449//688
f 442//666 444//697 446//685
f 447//687 445//698 443//668
f 416//662 450//699 452//700 476//701
f 453//702 451//703 417//663 477//704
f 450//699 432//683 462//705 452//700
f 463//706 433//689 451//703 453//702
f 432//683 434//686 460//707 462//705
f 461//708 435//690 433//689 463//706
f 434//709 436//709 458//709 460//709
f 459//710 437//710 435//710 461//710
f 436//711 438//711 456//711 458//711
f 457//712 439//712 437//712 459//712
f 438//713 440//713 454//713 456//713
f 455//714 441//714 439//714 457//714
f 440//675 418//674 474//715 454//716
f 475//717 419//677 441//676 455//718
f 428//654 416//662 476//701 464//719
f 477//704 417//663 429//658 465//720
f 426//655 428//654 464//719 466//721
f 465//720 429//658 427//657 467//722
f 424//723 426//723 466//723 468//723
f 467//724 427//724 425//724 469//724
f 422//725 424//725 468//725 470//725
f 469//726 425//726 423//726 471//726
f 420//727 422//727 470//727 472//727
f 471//728 423//728 421//728 473//728
f 418//674 420//729 472//729 474//715
f 473//730 421//730 419//677 475//717
f 458//731 456//732 480//733 478//734
f 481//735 457//736 459//737 479//738
f 478//734 480//733 482//739 484//740
f 483//741 481//735 479//738 485//742
f 484//740 482//739 488//743 486//744
f 489//745 483//741 485//742 487//746
f 486//744 488//743 490//747 492//748
f 491//749 489//745 487//746 493//750
f 464//751 476//752 486//744 492//748
f 487//746 477//753 465//754 493//750
f 452//755 484//740 486//744 476//752
f 487//746 485//742 453//756 477//753
f 452//755 462//757 478//734 484//740
f 479//738 463//758 453//756 485//742
f 458//731 478//734 462//757 460//759
f 463//758 479//738 459//737 461//760
f 454//761 474//761 480//761 456//761
f 481//762 475//762 455//762 457//762
f 472//763 482//739 480//733 474//764
f 481//735 483//741 473//765 475//766
f 470//767 488//743 482//739 472//763
f 483//741 489//745 471//768 473//765
f 468//769 490//747 488//743 470//767
f 489//745 491//749 469//770 471//768
f 466//771 492//748 490//747 468//769
f 491//749 493//750 467//772 469//770
f 464//751 492//748 466//771
f 467//772 493//750 465//754
f 392//773 390//774 504//775 502//776
f 505//777 391//778 393//779 503//780
f 394//781 392//773 502//776 500//781
f 503//780 393//779 395//782 501//782
f 396//783 394//783 500//783 498//783
f 501//784 395//784 397//784 499//784
f 398//785 396//785 498//785 496//785
f 499//786 397//786 399//786 497//786
f 400//787 398//788 496//788 494//789
f 497//790 399//790 401//791 495//792
f 388//793 400//787 494//789 506//794
f 495//792 401//791 389//795 507//796
f 494//797 502//798 504//799 506//799
f 505//800 503//801 495//802 507//800
f 494//797 496//803 500//803 502//798
f 501//804 497//804 495//802 503//801
f 496//805 498//805 500//805
f 501//806 499//806 497//806
f 314//807 382//807 388//793 506//794
f 389//795 383//808 315//808 507//796
f 314//607 506//809 504//809 322//608
f 505//810 507//810 315//613 323//612
f 320//811 322//811 504//775 390//774
f 505//777 323//812 321//812 391//778
